# xmcd CD database file
#
# Track frame offsets:
#	150
#	14375
#	24278
#
# Disc length: 514 seconds
#
# Revision: 0
# Processed by: cddbd v1.5.1PL0 Copyright (c) Steve Scherf et al.
# Submitted via: CDex 1.60beta1
#
DISCID=15020003
DTITLE=STANCE PUNKS - モニー・モニー・モニー
DYEAR=2005
DGENRE=Rock
TTITLE0=モニー・モニー・モニー
TTITLE1=半分人間
TTITLE2=鉄のひきがね
EXTD=YEAR: 2005
EXTT0=
EXTT1=
EXTT2=
PLAYORDER=
